<?xml version="1.0" encoding="UTF-8"?>
<svg id="Camada_2" data-name="Camada 2" xmlns="http://www.w3.org/2000/svg" viewBox="0 0 373.58 347.66">
  <defs>
    <style>
      .cls-1 {
        fill: none;
      }

      .cls-1, .cls-2 {
        stroke-width: 0px;
      }

      .cls-2 {
        fill: #172e2e;
      }
    </style>
  </defs>
  <g id="Camada_1-2" data-name="Camada 1">
    <g>
      <g>
        <path class="cls-1" d="m149.91,73.1c-1.71,4.2-3.22,8.63-4.53,13.21-11.13,38.92-8.03,88.58,2.78,96.77,3.49,2.65,14.68,4.75,25.2-6.19,9.21-9.58,7.04-35.88-5.8-70.35-4.45-11.94-9.91-24.27-16.26-36.68-.48,1.06-.93,2.14-1.38,3.24Z"/>
        <path class="cls-1" d="m359.11,101.2c-.34.04-.68.06-1.02.09-.61.05-1.22.11-1.82.14-.37.02-.74.02-1.11.03-.42.01-.85.04-1.27.04-.14,0-.28-.01-.42-.01-.42,0-.84-.02-1.25-.04-.51-.02-1.02-.04-1.52-.07-.15-.01-.3,0-.45-.02-.08.39-.18.77-.26,1.16-.11.48-.21.97-.33,1.45-.17.72-.36,1.43-.55,2.14-.12.46-.24.92-.37,1.38-.22.76-.46,1.52-.7,2.27-.13.39-.24.79-.37,1.17-.38,1.13-.79,2.25-1.22,3.36-.44,1.13-.91,2.24-1.4,3.35-1.48,3.32-3.2,6.54-5.14,9.64,2.85-1.08,5.23-2.27,6.97-3.47.25-.17.48-.34.71-.52.61-.47,1.18-.96,1.74-1.45.18-.16.35-.32.53-.48.37-.34.74-.68,1.09-1.02.19-.19.38-.39.57-.58.31-.32.62-.65.92-.98.18-.2.36-.41.54-.61.29-.33.57-.67.84-1.01.16-.2.32-.4.48-.59.28-.36.55-.73.82-1.1.12-.17.25-.34.37-.51.35-.5.69-1.01,1.01-1.51.02-.03.05-.07.07-.1.34-.55.67-1.1.98-1.64.09-.15.16-.3.25-.45.21-.39.42-.78.62-1.16.1-.19.19-.38.29-.58.17-.35.34-.69.49-1.03.09-.2.18-.4.27-.6.15-.33.29-.67.43-.99.08-.19.16-.38.23-.57.14-.34.26-.68.39-1.01.06-.17.13-.33.18-.5.14-.4.28-.8.41-1.19.03-.09.06-.18.09-.26.15-.47.29-.93.42-1.38.04-.15.08-.28.12-.43.07-.24.13-.48.19-.71-.2.03-.39.05-.59.08-.74.11-1.49.22-2.22.3Z"/>
        <path class="cls-1" d="m320.34,142.14c-6.47.8-13.2,1.18-20.03,1.12,1.19,1.34,2.2,2.54,3.08,3.58,1.98,2.35,3.69,4.37,6.36,6.87.89.83,1.81,1.64,2.72,2.4,4.81-.37,8.89-3.42,9.65-7.3.4-2.03-.23-3.94-1-5.39-.25-.48-.52-.91-.78-1.28Z"/>
        <path class="cls-2" d="m69.02,84.18c2.16-.29,4.07-1.72,5.25-3.94,1.09-2.04,1.49-4.57,1.15-7.14s-1.4-4.91-2.99-6.59c-1.72-1.82-3.94-2.7-6.1-2.42-2.16.29-4.07,1.72-5.25,3.93-1.09,2.04-1.49,4.57-1.15,7.14.7,5.26,4.24,9.06,8.24,9.06.28,0,.56-.02.85-.06Z"/>
        <path class="cls-2" d="m112.94,77.94c.15,0,.31,0,.46-.02,4.37-.33,7.45-5.03,7.02-10.7-.2-2.58-1.12-4.98-2.61-6.75-1.61-1.92-3.78-2.92-5.95-2.76-2.17.17-4.16,1.49-5.47,3.63-1.2,1.97-1.75,4.48-1.55,7.07.2,2.58,1.12,4.98,2.61,6.75,1.5,1.78,3.48,2.78,5.49,2.78Z"/>
        <path class="cls-2" d="m203.38,43.09c-5.26,0-9.37,6.88-9.37,15.66s4.12,15.66,9.37,15.66,9.37-6.88,9.37-15.66-4.12-15.66-9.37-15.66Z"/>
        <path class="cls-2" d="m242.67,57.91c0-8.78-4.12-15.66-9.37-15.66s-9.37,6.88-9.37,15.66,4.12,15.66,9.37,15.66,9.37-6.88,9.37-15.66Z"/>
        <circle class="cls-2" cx="266.48" cy="94.62" r="6.34"/>
        <path class="cls-2" d="m286.07,87.96c-3.49,0-6.34,2.84-6.34,6.34s2.84,6.34,6.34,6.34,6.34-2.84,6.34-6.34-2.84-6.34-6.34-6.34Z"/>
        <path class="cls-2" d="m270.46,110.52c0,3.5,2.84,6.34,6.34,6.34s6.34-2.84,6.34-6.34-2.84-6.34-6.34-6.34-6.34,2.84-6.34,6.34Z"/>
        <path class="cls-2" d="m118.69,88.88c-1.2-.64-2.58-.78-3.89-.38-1.3.4-2.38,1.28-3.02,2.48-.64,1.2-.78,2.58-.38,3.89,1.16,3.83.79,6.97-1.06,8.84-1.54,1.56-4.03,2.13-6.34,1.46-2.98-.87-5.18-3.64-6.05-7.6-.58-2.69-3.16-4.42-5.86-3.94-2.7.47-4.54,2.97-4.18,5.69.59,4.5-.35,7.95-2.6,9.46-1.29.87-2.81.93-4.16.15-2.32-1.33-3.5-4.66-3.24-9.14.08-1.36-.37-2.67-1.28-3.69-.91-1.02-2.15-1.63-3.51-1.71-1.36-.08-2.68.37-3.7,1.28-1.01.9-1.62,2.15-1.7,3.51-.51,8.49,2.54,15.27,8.36,18.6,2.15,1.23,4.58,1.88,7.03,1.88,2.8,0,5.53-.84,7.89-2.42,1.92-1.29,3.48-2.96,4.67-4.98,1.65,1.21,3.49,2.11,5.48,2.7,5.95,1.73,12.25.16,16.45-4.09,4.54-4.59,5.84-11.51,3.57-18.98-.4-1.31-1.28-2.38-2.48-3.02Z"/>
        <path class="cls-2" d="m305.88,100.53c3.49,0,6.34-2.84,6.34-6.34s-2.84-6.34-6.34-6.34-6.34,2.84-6.34,6.34,2.84,6.34,6.34,6.34Z"/>
        <path class="cls-2" d="m288.79,110.73c0,3.5,2.84,6.34,6.34,6.34s6.34-2.84,6.34-6.34-2.84-6.34-6.34-6.34-6.34,2.84-6.34,6.34Z"/>
        <path class="cls-2" d="m373.46,86.21h0c-.7-9.63-4.28-16.95-9.83-20.09-3.66-2.07-8.25-1.41-15.86-.31-16.08,2.32-45.91,6.62-89.05-14.64-4.13-26.26-6.21-29.02-12.57-34.31l-.59-.49c-16.12-13.51-45.68-9.92-73.56,8.95-.22.15-.42.31-.61.48-7.51,6.94-14.19,14.68-19.88,23.04-9.77-17.1-20.69-33.28-31.67-46.93-1.12-1.4-2.92-2.1-4.69-1.86-1.77.25-3.3,1.43-3.99,3.08l-10.03,23.87c-6.12-1.52-12.58-1.9-18.78-1.11-5.36.68-10.74,2.29-15.68,4.66l-12.69-22.08c-.97-1.69-2.78-2.67-4.74-2.55-1.95.12-3.63,1.31-4.39,3.11-9.68,22.92-16.63,49.74-20.67,79.73-7.24,1.23-14.32,3.29-21.06,6.11-2.6,1.09-3.82,4.08-2.74,6.68.8,1.9,2.64,3.13,4.71,3.13.68,0,1.34-.13,1.97-.4,5.09-2.13,10.4-3.78,15.83-4.9-.81,7.44-1.47,15.22-1.95,23.17-5.55,3.43-10.86,7.19-15.8,11.19-2.19,1.77-2.53,4.99-.76,7.18.97,1.2,2.42,1.89,3.97,1.89,1.16,0,2.3-.4,3.21-1.14,2.72-2.2,5.65-4.38,8.75-6.51-.35,9.55-.47,19.37-.34,29.25v.27c.02,1.46.04,2.57.03,3.32-.02,2.81,2.25,5.12,5.1,5.14,2.79,0,5.08-2.27,5.1-5.07,0-.79,0-1.97-.03-3.52v-.28c-.15-12.02.07-24.04.65-35.75.22-.13.45-.27.67-.39,5.87-3.3,12.03-6.21,18.31-8.65,1.27-.49,2.27-1.45,2.82-2.7.55-1.25.58-2.63.09-3.91-1.02-2.62-3.98-3.92-6.61-2.91-4.87,1.89-9.75,4.09-14.55,6.57.47-6.34,1.06-12.6,1.76-18.67,5.25-.43,10.53-.39,15.71.13,1.36.14,2.69-.26,3.75-1.13,1.05-.86,1.71-2.08,1.84-3.44.14-1.36-.26-2.69-1.13-3.74-.86-1.06-2.08-1.71-3.44-1.85-5.1-.51-10.27-.62-15.4-.31,3.38-23.92,8.66-45.7,15.74-64.81l9.9,17.23c.68,1.19,1.84,2.07,3.17,2.41,1.33.34,2.76.12,3.93-.6,4.91-3.03,10.53-5.02,16.23-5.74,6.26-.8,12.74-.11,18.73,2,2.55.89,5.36-.36,6.4-2.84l8.43-20.07c9.88,13.06,19.58,28.07,28.2,43.67-9.6,17.81-15.91,45.05-16.91,73.17-.4,11.2-.6,48.58,13.51,59.27,2.64,2,7.76,4.14,14.2,4.14s15.47-1.98,24.52-11.4c16.66-17.34,4.9-58.18-3.59-80.99-5.35-14.35-12.08-29.16-20.02-44.02,5.76-9.3,12.8-17.84,20.93-25.4,23.59-15.85,48.64-19.7,60.97-9.37l.61.51c4.04,3.36,5.4,4.49,9.42,30.63.25,1.62,1.27,3.03,2.73,3.77,25.5,12.97,49.61,19.15,73.65,18.91-.17,4.27.66,8.07,2.49,11.33,2.46,4.38,6.72,7.75,12.34,9.84-.79,3.9-1.88,7.73-3.31,11.38-2.98,7.63-7.28,14.62-12.79,20.77-9.36,1.57-19.78,2.13-30.21,1.61-29.85-1.48-57.2-11.55-77.03-28.36-2.15-1.82-5.37-1.55-7.19.59-1.82,2.14-1.55,5.37.59,7.19,24.8,21.03,54.25,27.96,74.84,30.05,0,0,.02.02.03.03,1.54,1.41,3.05,2.87,4.49,4.35,2.52,2.59,4.24,4.63,5.9,6.61,2.1,2.49,4.08,4.84,7.2,7.76,1.55,1.44,3.14,2.81,4.75,4.07.84.66,1.85,1.04,2.93,1.08,10.66.47,19.85-6.23,21.67-15.57.67-3.42.26-6.97-1.18-10.39,10.05-2.14,18.12-5.31,22.9-9.03,15.99-12.44,20.55-32.09,19.6-45.13Zm-205.9,20.33c12.84,34.47,15.01,60.77,5.8,70.35-10.52,10.94-21.71,8.84-25.2,6.19-10.81-8.19-13.91-57.85-2.78-96.77,1.31-4.58,2.82-9.01,4.53-13.21.45-1.09.91-2.18,1.38-3.24,6.35,12.41,11.81,24.73,16.26,36.68Zm154.56,42.27c-.76,3.88-4.84,6.93-9.65,7.3-.92-.76-1.83-1.57-2.72-2.4-2.67-2.49-4.38-4.52-6.36-6.87-.88-1.05-1.89-2.24-3.08-3.58,6.83.06,13.56-.32,20.03-1.12.25.37.52.8.78,1.28.76,1.45,1.39,3.36,1,5.39Zm39.61-47.27c-.04.14-.08.28-.12.43-.13.45-.27.91-.42,1.38-.03.09-.06.18-.09.26-.13.39-.26.78-.41,1.19-.06.16-.12.33-.18.5-.12.33-.25.67-.39,1.01-.08.19-.16.38-.23.57-.14.33-.28.66-.43.99-.09.2-.18.4-.27.6-.16.34-.32.69-.49,1.03-.09.19-.19.38-.29.58-.2.39-.41.78-.62,1.16-.08.15-.16.3-.25.45-.31.55-.63,1.09-.98,1.64-.02.03-.05.07-.07.1-.32.51-.66,1.01-1.01,1.51-.12.17-.25.34-.37.51-.27.37-.54.73-.82,1.1-.15.2-.32.4-.48.59-.27.34-.55.67-.84,1.01-.18.2-.36.41-.54.61-.3.33-.61.66-.92.98-.19.19-.38.39-.57.58-.35.35-.72.69-1.09,1.02-.18.16-.35.32-.53.48-.56.49-1.14.98-1.74,1.45-.22.17-.46.35-.71.52-1.74,1.2-4.12,2.39-6.97,3.47,1.94-3.1,3.66-6.33,5.14-9.64.49-1.11.96-2.22,1.4-3.35.43-1.11.84-2.23,1.22-3.36.13-.39.25-.78.37-1.17.24-.75.48-1.51.7-2.27.13-.46.25-.92.37-1.38.19-.71.38-1.42.55-2.14.11-.48.22-.96.33-1.45.08-.39.18-.77.26-1.16.15.01.3.01.45.02.5.04,1.01.06,1.52.07.42.02.83.03,1.25.04.14,0,.28.01.42.01.42,0,.85-.02,1.27-.04.37,0,.74-.01,1.11-.03.6-.03,1.21-.08,1.82-.14.34-.03.68-.05,1.02-.09.74-.08,1.48-.19,2.22-.3.2-.03.39-.05.59-.08-.06.23-.12.47-.19.71Z"/>
      </g>
      <g>
        <path class="cls-2" d="m58.88,266.72c-3.02,3.12-7.4,4.68-13.12,4.68-1.17,0-2.36-.1-3.56-.29-1.2-.2-2.34-.47-3.42-.83s-2.03-.76-2.88-1.22v22.05l-10.83-2.15v-65.46c0-1.19.96-2.15,2.15-2.15h6.54c1.19,0,2.15.96,2.15,2.15h0c.45-.39,1.3-.83,2.54-1.32,1.23-.49,2.62-.91,4.15-1.27,1.53-.36,2.98-.54,4.34-.54,3.58,0,6.58.63,9.02,1.9,2.44,1.27,4.29,3.09,5.56,5.46,1.27,2.38,1.9,5.25,1.9,8.63v16.68c0,5.99-1.51,10.54-4.54,13.66Zm-6.88-32.93c-.46-.94-1.07-1.67-1.85-2.2-.78-.52-1.66-.89-2.63-1.12-.98-.23-1.98-.34-3.02-.34-1.3,0-2.57.18-3.8.54-1.24.36-2.28.72-3.12,1.07-.85.36-1.4.6-1.66.73v24.1c0,.91.33,1.69.98,2.34.65.65,1.48,1.17,2.49,1.56,1.01.39,2.05.68,3.12.88,1.07.2,2.06.29,2.98.29,1.56,0,2.88-.29,3.95-.88,1.07-.59,1.89-1.42,2.44-2.49.55-1.07.83-2.29.83-3.66v-17.37c0-1.37-.23-2.52-.68-3.46Z"/>
        <path class="cls-2" d="m96.3,232.77c-.46-1.24-1.16-2.2-2.1-2.88-.94-.68-2.15-1.19-3.61-1.51-.91-.2-1.95-.34-3.13-.42s-2.14-1.19-1.98-2.42l.42-3.17c.14-1.09,1.1-1.9,2.2-1.87,3.07.09,5.73.39,8,.9,2.73.62,4.96,1.69,6.68,3.22,1.72,1.53,2.98,3.55,3.76,6.05.78,2.5,1.17,5.64,1.17,9.41v30.15c-1.11.13-2.24.26-3.42.39-1.17.13-2.36.24-3.56.34-1.2.1-2.46.16-3.76.2-1.3.03-2.6.06-3.9.1-1.3.03-2.63.05-4,.05-3.06,0-5.87-.26-8.44-.78-2.57-.52-4.83-1.4-6.78-2.63-1.95-1.23-3.46-2.91-4.54-5.02-1.07-2.11-1.61-4.73-1.61-7.85v-9.46c0-2.47.36-4.62,1.07-6.44.71-1.82,1.72-3.32,3.02-4.49,1.3-1.17,2.81-2.05,4.54-2.63,1.72-.59,3.53-.88,5.42-.88s3.69.24,5.61.73c1.92.49,3.72,1.19,5.42,2.1,1.69.91,3.09,2.08,4.2,3.51,0-1.89-.23-3.45-.68-4.68Zm-2.34,11.51c-1.37-.52-2.9-1.02-4.59-1.51-1.69-.49-3.35-.73-4.98-.73-.85,0-1.61.08-2.29.24-.68.16-1.29.44-1.81.83-.52.39-.93.91-1.22,1.56-.29.65-.44,1.43-.44,2.34v6.24c0,1.24.15,2.34.44,3.32.29.98.83,1.82,1.61,2.54.78.72,1.92,1.27,3.42,1.66,1.5.39,3.45.58,5.85.58.39,0,.88-.02,1.46-.05.59-.03,1.19-.06,1.8-.1.62-.03,1.22-.06,1.81-.1.58-.03,1.23-.08,1.95-.15v-15.41c-.65-.33-1.66-.75-3.02-1.27Z"/>
        <path class="cls-2" d="m124.3,260.67c.65.85,1.59,1.43,2.83,1.76,1.24.33,2.67.49,4.29.49l-3.12,8.59c-5.33-.13-9.32-1.4-11.95-3.8s-3.95-5.89-3.95-10.44v-53.17c0-1.19.96-2.15,2.15-2.15h6.63c1.19,0,2.15.96,2.15,2.15v17.37h4.6c3.09,0,5.38,2.87,4.69,5.88l-.9,3.97h-8.39v25.85c0,1.5.32,2.67.98,3.51Z"/>
        <path class="cls-2" d="m147.76,202.52c1.14,1.04,1.71,2.41,1.71,4.1s-.57,3.01-1.71,4.15-2.52,1.71-4.15,1.71-3.01-.57-4.15-1.71c-1.14-1.14-1.71-2.52-1.71-4.15s.57-3.06,1.71-4.1c1.14-1.04,2.52-1.56,4.15-1.56s3.01.52,4.15,1.56Zm-7.46,18.83h6.54c1.19,0,2.15.96,2.15,2.15v46.73h-10.83v-46.73c0-1.19.96-2.15,2.15-2.15Z"/>
        <path class="cls-2" d="m180.88,234.08c-.39-.81-.96-1.51-1.71-2.1-.75-.59-1.61-1.02-2.58-1.32s-2.08-.44-3.32-.44c-.78,0-1.63.07-2.54.2-.91.13-1.89.38-2.93.73-1.04.36-2.15.83-3.32,1.42v37.76h-10.73v-46.83c0-1.19.96-2.15,2.15-2.15h6.44c1.19,0,2.15.96,2.15,2.15v.1c.65-.32,1.54-.73,2.68-1.22,1.14-.49,2.42-.93,3.85-1.32,1.43-.39,2.93-.59,4.49-.59s3.24.16,4.83.49c1.59.33,3.11.85,4.54,1.56,1.43.72,2.68,1.68,3.76,2.88,1.07,1.2,1.92,2.72,2.54,4.54.62,1.82.93,4,.93,6.54v33.85h-10.63v-33.56c0-.98-.2-1.87-.58-2.68Z"/>
        <path class="cls-2" d="m210.1,222.23c1.14-.52,2.42-.96,3.85-1.32,1.43-.36,2.93-.54,4.49-.54,1.69,0,3.33.16,4.93.49,1.59.33,3.09.83,4.49,1.51,1.4.68,2.65,1.64,3.76,2.88,1.1,1.24,1.97,2.77,2.58,4.59.62,1.82.93,4.03.93,6.63v33.76h-10.63v-33.56c0-.98-.2-1.85-.59-2.63-.39-.78-.93-1.46-1.61-2.05-.68-.59-1.51-1.02-2.49-1.32s-2.05-.44-3.22-.44c-.85,0-1.77.08-2.78.24-1.01.16-2.03.41-3.07.73-1.04.33-2.15.75-3.32,1.27v37.76h-10.73v-66.15c0-1.19.96-2.15,2.15-2.15h6.44c1.19,0,2.15.96,2.15,2.15v19.51c.65-.39,1.54-.84,2.68-1.37Z"/>
        <path class="cls-2" d="m267.8,232.77c-.46-1.24-1.16-2.2-2.1-2.88-.94-.68-2.15-1.19-3.61-1.51-.91-.2-1.95-.34-3.13-.42s-2.14-1.19-1.98-2.42l.42-3.17c.14-1.09,1.1-1.9,2.2-1.87,3.07.09,5.73.39,8,.9,2.73.62,4.96,1.69,6.68,3.22,1.72,1.53,2.98,3.55,3.76,6.05.78,2.5,1.17,5.64,1.17,9.41v30.15c-1.11.13-2.24.26-3.42.39-1.17.13-2.36.24-3.56.34-1.2.1-2.46.16-3.76.2-1.3.03-2.6.06-3.9.1-1.3.03-2.63.05-4,.05-3.06,0-5.87-.26-8.44-.78-2.57-.52-4.83-1.4-6.78-2.63-1.95-1.23-3.46-2.91-4.54-5.02-1.07-2.11-1.61-4.73-1.61-7.85v-9.46c0-2.47.36-4.62,1.07-6.44.71-1.82,1.72-3.32,3.02-4.49,1.3-1.17,2.81-2.05,4.54-2.63,1.72-.59,3.53-.88,5.42-.88s3.69.24,5.61.73c1.92.49,3.72,1.19,5.42,2.1,1.69.91,3.09,2.08,4.2,3.51,0-1.89-.23-3.45-.68-4.68Zm-2.34,11.51c-1.37-.52-2.9-1.02-4.59-1.51-1.69-.49-3.35-.73-4.98-.73-.85,0-1.61.08-2.29.24-.68.16-1.29.44-1.81.83-.52.39-.93.91-1.22,1.56-.29.65-.44,1.43-.44,2.34v6.24c0,1.24.15,2.34.44,3.32.29.98.83,1.82,1.61,2.54.78.72,1.92,1.27,3.42,1.66,1.5.39,3.45.58,5.85.58.39,0,.88-.02,1.46-.05.59-.03,1.19-.06,1.8-.1.62-.03,1.22-.06,1.81-.1.58-.03,1.23-.08,1.95-.15v-15.41c-.65-.33-1.66-.75-3.02-1.27Z"/>
        <path class="cls-2" d="m310.78,231.55c-1.01-.29-2.08-.52-3.22-.68-1.14-.16-2.33-.24-3.56-.24-.65,0-1.35.03-2.1.1-.75.07-1.48.21-2.2.44-.72.23-1.32.55-1.8.98-.49.42-.73.99-.73,1.71,0,.91.45,1.72,1.37,2.44.91.72,2.1,1.37,3.56,1.95,1.46.59,3.09,1.21,4.88,1.85,1.79.65,3.54,1.4,5.27,2.24,1.72.85,3.33,1.85,4.83,3.02s2.68,2.62,3.56,4.34c.88,1.72,1.32,3.79,1.32,6.19,0,2.6-.52,4.88-1.56,6.83-1.04,1.95-2.42,3.59-4.15,4.93-1.72,1.33-3.72,2.34-6,3.02-2.28.68-4.62,1.02-7.02,1.02-3.84,0-7.48-.75-10.93-2.24-3.45-1.5-6.37-3.51-8.78-6.05l6.24-6.63c1.17.91,2.45,1.74,3.85,2.49,1.4.75,2.84,1.33,4.34,1.76,1.5.42,2.96.63,4.39.63.91,0,1.85-.1,2.83-.29s1.85-.52,2.63-.98c.78-.45,1.41-1.02,1.9-1.71.49-.68.73-1.51.73-2.49,0-1.3-.44-2.37-1.32-3.22-.88-.84-2.05-1.61-3.51-2.29-1.46-.68-3.06-1.35-4.78-2-1.72-.65-3.46-1.35-5.22-2.1-1.76-.75-3.35-1.69-4.78-2.83-1.43-1.14-2.6-2.5-3.51-4.1-.91-1.59-1.37-3.5-1.37-5.71,0-2.41.49-4.49,1.46-6.24s2.29-3.19,3.95-4.29c1.66-1.1,3.53-1.93,5.61-2.49,2.08-.55,4.23-.83,6.44-.83,1.5,0,3.06.13,4.68.39,1.62.26,3.2.65,4.73,1.17.83.28,1.6.6,2.33.96,1,.49,1.47,1.66,1.07,2.7l-1.98,5.21c-.42,1.09-1.62,1.63-2.73,1.26-.24-.08-.48-.16-.74-.23Z"/>
      </g>
      <g>
        <path class="cls-2" d="m86.28,286.49c-.81-.06-1.58-.1-2.29-.1-.78,0-1.45.12-2,.34-.55.23-1.02.55-1.41.98-.39.42-.68.89-.88,1.42-.2.52-.29,1.11-.29,1.76v6.44h3.32c3.28,0,5.7,3.07,4.93,6.26h0c-.55,2.28-2.59,3.89-4.93,3.89h-3.32v38.73h-11.12s0-53.76,0-53.76c0-2.79.39-5.19,1.17-7.17.78-1.98,1.89-3.62,3.32-4.93,1.43-1.3,3.06-2.24,4.88-2.83,1.82-.58,3.77-.88,5.85-.88.65,0,1.37.03,2.15.1.78.07,1.56.15,2.34.24h.02c1.1.14,1.86,1.19,1.65,2.28l-1.1,5.68c-.19.99-1.1,1.66-2.11,1.56-.05,0-.11-.01-.17-.01Z"/>
        <path class="cls-2" d="m101.94,334c.26.72.65,1.32,1.17,1.81.52.49,1.19.86,2,1.12.81.26,1.74.39,2.78.39,2.02,0,4.24-.37,6.68-1.12.82-.25,1.63-.52,2.44-.82,2.64-.96,5.56.31,6.61,2.91h0c1.1,2.72-.26,5.79-3,6.83-1.07.4-2.19.76-3.37,1.08-3.12.84-6.28,1.27-9.46,1.27-2.47,0-4.75-.29-6.83-.88-2.08-.59-3.9-1.45-5.46-2.59-1.56-1.14-2.77-2.62-3.61-4.44-.85-1.82-1.27-3.97-1.27-6.44v-20.19c0-3.71.84-6.8,2.54-9.27,1.69-2.47,3.98-4.31,6.88-5.51,2.89-1.2,6.13-1.81,9.71-1.81s6.93.59,9.66,1.76c2.73,1.17,4.84,2.98,6.34,5.41,1.5,2.44,2.24,5.48,2.24,9.12v7.55c0,4.35-3.42,7.93-7.76,8.14l-18.68.9v2.44c0,.85.13,1.63.39,2.34Zm14.68-22.78c-.36-1.4-1.07-2.55-2.15-3.46-1.07-.91-2.68-1.3-4.83-1.17-2.28.07-4,.47-5.17,1.22-1.17.75-1.95,1.76-2.34,3.02-.39,1.27-.58,2.81-.58,4.63v3.9l15.61-.88v-2.93c0-1.5-.18-2.94-.54-4.34Z"/>
        <path class="cls-2" d="m137.69,277.9h0c2.99,0,5.41,2.42,5.41,5.41v62.88h-10.83v-62.88c0-2.99,2.42-5.41,5.41-5.41Z"/>
        <path class="cls-2" d="m157.89,278.49c1.14,1.04,1.71,2.41,1.71,4.1s-.57,3.01-1.71,4.15-2.52,1.71-4.15,1.71-3.01-.57-4.15-1.71c-1.14-1.14-1.71-2.52-1.71-4.15s.57-3.06,1.71-4.1c1.14-1.04,2.52-1.56,4.15-1.56s3.01.52,4.15,1.56Zm-4.72,18.83h1.05c2.7,0,4.89,2.19,4.89,4.89v43.99h-10.83v-43.99c0-2.7,2.19-4.89,4.89-4.89Z"/>
        <path class="cls-2" d="m199.13,308.98l-21.59,26.87,24.19.1.22,10.9h-32.34c-3.28,0-5.96-2.63-6.02-5.91l-.06-2.88c-.03-1.43.45-2.82,1.35-3.93l21.82-26.77-17.28-.08c-2.75-.01-4.96-2.24-4.96-4.99h0c0-2.75,2.23-4.99,4.99-4.99h24.25c3.84,0,6.96,3.11,6.96,6.96v.35c0,1.58-.54,3.12-1.53,4.36Z"/>
        <path class="cls-2" d="m217.05,334c.26.72.65,1.32,1.17,1.81.52.49,1.19.86,2,1.12.81.26,1.74.39,2.78.39,2.02,0,4.24-.37,6.68-1.12,2.44-.75,4.79-1.67,7.07-2.78l3.81,9.37c-2.34,1.43-5.07,2.57-8.2,3.42s-6.28,1.27-9.46,1.27c-2.47,0-4.75-.29-6.83-.88-2.08-.59-3.9-1.45-5.46-2.59-1.56-1.14-2.77-2.62-3.61-4.44-.85-1.82-1.27-3.97-1.27-6.44v-20.19c0-3.71.84-6.8,2.54-9.27,1.69-2.47,3.98-4.31,6.88-5.51,2.89-1.2,6.13-1.81,9.71-1.81s6.93.59,9.66,1.76c2.73,1.17,4.84,2.98,6.34,5.41,1.5,2.44,2.24,5.48,2.24,9.12v7.26c0,4.51-3.54,8.23-8.05,8.45l-18.39.88v2.44c0,.85.13,1.63.39,2.34Zm14.68-22.78c-.36-1.4-1.07-2.55-2.15-3.46-1.07-.91-2.68-1.3-4.83-1.17-2.28.07-4,.47-5.17,1.22-1.17.75-1.95,1.76-2.34,3.02-.39,1.27-.58,2.81-.58,4.63v3.9l15.61-.88v-2.93c0-1.5-.18-2.94-.54-4.34Z"/>
        <path class="cls-2" d="m271.93,307.51c-1.01-.29-2.08-.52-3.22-.68-1.14-.16-2.33-.24-3.56-.24-.65,0-1.35.03-2.1.1-.75.07-1.48.21-2.2.44-.72.23-1.32.55-1.8.98-.49.42-.73.99-.73,1.71,0,.91.45,1.72,1.37,2.44.91.72,2.1,1.37,3.56,1.95,1.46.59,3.09,1.21,4.88,1.85,1.79.65,3.54,1.4,5.27,2.24,1.72.85,3.33,1.85,4.83,3.02s2.68,2.62,3.56,4.34c.88,1.72,1.32,3.79,1.32,6.19,0,2.6-.52,4.88-1.56,6.83-1.04,1.95-2.42,3.59-4.15,4.93-1.72,1.33-3.72,2.34-6,3.02-2.28.68-4.62,1.02-7.02,1.02-3.84,0-7.48-.75-10.93-2.24-3.45-1.5-6.37-3.51-8.78-6.05l6.24-6.63c1.17.91,2.45,1.74,3.85,2.49,1.4.75,2.84,1.33,4.34,1.76,1.5.42,2.96.63,4.39.63.91,0,1.85-.1,2.83-.29s1.85-.52,2.63-.98c.78-.45,1.41-1.02,1.9-1.71.49-.68.73-1.51.73-2.49,0-1.3-.44-2.37-1.32-3.22-.88-.84-2.05-1.61-3.51-2.29-1.46-.68-3.06-1.35-4.78-2-1.72-.65-3.46-1.35-5.22-2.1-1.76-.75-3.35-1.69-4.78-2.83-1.43-1.14-2.6-2.5-3.51-4.1-.91-1.59-1.37-3.5-1.37-5.71,0-2.41.49-4.49,1.46-6.24s2.29-3.19,3.95-4.29c1.66-1.1,3.53-1.93,5.61-2.49,2.08-.55,4.23-.83,6.44-.83,1.5,0,3.06.13,4.68.39,1.62.26,3.2.65,4.73,1.17.5.17.99.36,1.46.56,1.5.64,2.23,2.35,1.65,3.87l-1.4,3.67c-.57,1.5-2.19,2.26-3.73,1.81-.01,0-.02,0-.03,0Z"/>
      </g>
    </g>
  </g>
</svg>