<?xml version="1.0" encoding="UTF-8"?>
<svg id="Camada_2" data-name="Camada 2" xmlns="http://www.w3.org/2000/svg" viewBox="0 0 328.51 328.51">
  <defs>
    <style>
      .cls-1 {
        fill: #0f2f2e;
      }

      .cls-1, .cls-2 {
        stroke-width: 0px;
      }

      .cls-2 {
        fill: #dbff97;
      }
    </style>
  </defs>
  <g id="Camada_1-2" data-name="Camada 1">
    <g>
      <path class="cls-2" d="m328.23,154.78c-4.1-4.31-6.77-11.93-6.77-20.79,0-4.2.6-8.12,1.67-11.54-3.29-12.55-8.04-24.52-14.04-35.71-4.23,2.34-8.47,4.91-12.68,7.73-12.76,11.86-23.79,25.25-32.84,39.84,12.45,23.31,23.01,46.53,31.4,69.05,4.27,11.45,9.06,25.81,12.74,40.93,13.24-23.68,20.79-50.97,20.79-80.03,0-3.18-.1-6.34-.28-9.48Z"/>
      <path class="cls-2" d="m218.69,248.8c1.57-44.11,11.46-86.83,26.52-114.77-13.52-24.46-28.73-48.02-44.23-68.49l-13.22,31.47c-1.63,3.9-6.04,5.85-10.03,4.45-9.4-3.31-19.56-4.4-29.38-3.14-8.95,1.14-17.75,4.26-25.46,9.01-1.83,1.13-4.08,1.47-6.17.94-2.09-.53-3.9-1.91-4.97-3.77l-15.52-27.02c-11.1,29.99-19.39,64.14-24.69,101.66,8.05-.48,16.16-.32,24.16.49,2.13.21,4.04,1.24,5.4,2.9,1.35,1.66,1.98,3.74,1.76,5.87-.21,2.13-1.24,4.04-2.89,5.4-1.65,1.35-3.75,1.99-5.88,1.77-8.12-.82-16.4-.89-24.63-.21-1.1,9.52-2.03,19.34-2.76,29.29,7.53-3.88,15.19-7.33,22.82-10.3,4.12-1.59,8.77.45,10.36,4.56.77,1.99.73,4.17-.14,6.13-.86,1.96-2.43,3.46-4.43,4.24-9.85,3.82-19.51,8.39-28.72,13.56-.35.2-.7.41-1.05.62-.84,16.81-1.18,34.04-1.05,51.29,27.66,21.18,62.24,33.77,99.77,33.77,21.53,0,42.09-4.15,60.93-11.68-7.21-24.01-6.93-55.86-6.5-68.03Zm-34.66-110.73c2.04-3.36,5.17-5.44,8.57-5.7,3.41-.26,6.81,1.32,9.34,4.33,2.33,2.77,3.78,6.53,4.09,10.58.68,8.88-4.16,16.25-11.01,16.78-.24.02-.49.03-.73.03-3.16,0-6.26-1.56-8.61-4.36-2.33-2.77-3.78-6.53-4.09-10.58-.31-4.05.56-7.99,2.44-11.08Zm-72.87,21.69c-.54-4.03.1-8.01,1.8-11.2,1.85-3.47,4.85-5.72,8.24-6.17,3.39-.45,6.87.93,9.57,3.79,2.48,2.63,4.15,6.3,4.68,10.34.54,4.03-.1,8.01-1.8,11.2-1.85,3.47-4.85,5.72-8.24,6.17-.44.06-.89.09-1.33.09-6.28,0-11.82-5.96-12.93-14.22Zm90.44,56.01c-6.58,6.67-16.47,9.12-25.8,6.41-3.13-.91-6.01-2.33-8.6-4.23-1.87,3.17-4.32,5.79-7.33,7.81-3.7,2.48-7.98,3.79-12.38,3.79-3.84,0-7.65-1.02-11.03-2.95-9.13-5.22-13.9-15.85-13.11-29.18.13-2.13,1.07-4.09,2.66-5.51,1.6-1.42,3.66-2.13,5.8-2.01,2.13.13,4.09,1.08,5.51,2.68,1.42,1.6,2.13,3.66,2,5.79-.42,7.02,1.43,12.24,5.08,14.33,2.12,1.21,4.5,1.13,6.53-.24,3.53-2.37,5.01-7.77,4.08-14.84-.56-4.27,2.32-8.19,6.56-8.93,4.24-.75,8.28,1.97,9.2,6.19,1.35,6.22,4.81,10.56,9.48,11.92,3.63,1.06,7.53.15,9.94-2.29,2.9-2.94,3.49-7.86,1.67-13.87-.62-2.04-.41-4.21.6-6.1,1.01-1.89,2.69-3.27,4.74-3.89,2.04-.62,4.21-.41,6.09.6,1.89,1.01,3.27,2.69,3.89,4.74,3.56,11.71,1.52,22.57-5.6,29.77Z"/>
      <path class="cls-2" d="m50.03,234.06c.75-12.48,1.78-24.68,3.05-36.35-8.51,1.76-16.85,4.34-24.83,7.69-.99.41-2.03.62-3.09.62-3.24,0-6.13-1.93-7.38-4.91-1.71-4.07.22-8.77,4.29-10.48,10.57-4.43,21.67-7.65,33.04-9.59,6.33-47.04,17.23-89.1,32.42-125.06,1.19-2.82,3.83-4.69,6.89-4.88,3.07-.18,5.91,1.35,7.43,4l19.9,34.64c7.74-3.72,16.18-6.23,24.59-7.3,9.73-1.24,19.87-.63,29.46,1.74l15.73-37.44c1.08-2.59,3.48-4.44,6.26-4.83,2.78-.39,5.59.72,7.35,2.91,17.24,21.41,34.35,46.78,49.68,73.61,8.93-13.11,19.4-25.25,31.19-36.14.29-.27.61-.53.95-.76,4.61-3.12,9.25-5.96,13.9-8.54C271.38,28.98,221.2,0,164.26,0,73.54,0,0,73.54,0,164.26c0,32.13,9.23,62.1,25.18,87.41.02-.02.04-.04.07-.06,7.75-6.27,16.08-12.17,24.78-17.55Z"/>
      <path class="cls-2" d="m35.32,264.05c-.31.25-.65.48-1,.68,4.37,5.64,9.09,11,14.15,16.02.07-9.07.25-18.07.57-26.91-4.85,3.33-9.45,6.76-13.72,10.21Z"/>
      <path class="cls-2" d="m254.46,151.42c-.75,1.66-1.46,3.36-2.17,5.08-2.69,6.58-5.05,13.53-7.11,20.72-13.35,46.67-13.65,103.2-5.47,132.97,21.91-11.35,40.94-27.5,55.7-47.04-2.81-15.85-7.97-34.14-15.44-54.2-6.98-18.74-15.55-38.06-25.51-57.53Z"/>
      <path class="cls-1" d="m125.42,173.88c3.39-.45,6.39-2.7,8.24-6.17,1.7-3.19,2.34-7.17,1.8-11.2-.54-4.03-2.2-7.7-4.68-10.34-2.7-2.86-6.18-4.24-9.57-3.79-3.39.45-6.39,2.7-8.24,6.17-1.7,3.19-2.34,7.17-1.8,11.2,1.1,8.26,6.65,14.22,12.93,14.22.44,0,.88-.03,1.33-.09Z"/>
      <path class="cls-1" d="m185.69,159.73c2.35,2.8,5.45,4.36,8.61,4.36.24,0,.49,0,.73-.03,6.85-.52,11.69-7.89,11.01-16.78-.31-4.05-1.76-7.81-4.09-10.58-2.53-3.01-5.93-4.58-9.34-4.33-3.4.26-6.53,2.34-8.57,5.7-1.88,3.09-2.75,7.03-2.44,11.08.31,4.05,1.76,7.81,4.09,10.58Z"/>
      <path class="cls-1" d="m328.23,154.78c-.63-11.11-2.37-21.92-5.1-32.33-1.07,3.42-1.67,7.34-1.67,11.54,0,8.86,2.67,16.47,6.77,20.79Z"/>
      <path class="cls-1" d="m203.32,181.25c-1.89-1.01-4.05-1.22-6.09-.6-2.05.62-3.73,2-4.74,3.89-1.01,1.89-1.22,4.05-.6,6.1,1.82,6.01,1.23,10.93-1.67,13.87-2.41,2.44-6.32,3.34-9.94,2.29-4.68-1.36-8.13-5.7-9.48-11.92-.92-4.22-4.96-6.93-9.2-6.19-4.24.74-7.12,4.66-6.56,8.93.93,7.06-.56,12.47-4.08,14.84-2.03,1.37-4.41,1.45-6.53.24-3.64-2.09-5.49-7.31-5.08-14.33.13-2.13-.59-4.19-2-5.79-1.42-1.6-3.38-2.55-5.51-2.68-2.14-.12-4.21.59-5.8,2.01-1.59,1.42-2.54,3.37-2.66,5.51-.79,13.32,3.98,23.96,13.11,29.18,3.38,1.93,7.19,2.95,11.03,2.95,4.4,0,8.68-1.31,12.38-3.79,3.01-2.02,5.47-4.64,7.33-7.81,2.59,1.9,5.47,3.32,8.6,4.23,9.33,2.71,19.22.26,25.8-6.41,7.12-7.21,9.16-18.06,5.6-29.77-.62-2.05-2-3.73-3.89-4.74Z"/>
      <path class="cls-1" d="m263.58,134.31c9.04-14.59,20.08-27.98,32.84-39.84,4.21-2.83,8.45-5.4,12.68-7.73-.94-1.76-1.92-3.5-2.93-5.23-.68-1.16-1.37-2.31-2.08-3.45-1.05-1.71-2.14-3.39-3.25-5.06-4.64,2.58-9.28,5.42-13.9,8.54-.34.23-.66.48-.95.76-11.78,10.89-22.26,23.03-31.19,36.14-15.33-26.83-32.45-52.2-49.68-73.61-1.76-2.19-4.58-3.3-7.35-2.91-2.78.39-5.18,2.24-6.26,4.83l-15.73,37.44c-9.6-2.38-19.73-2.98-29.46-1.74-8.4,1.07-16.85,3.59-24.59,7.3l-19.9-34.64c-1.52-2.65-4.36-4.18-7.43-4-3.06.19-5.7,2.06-6.89,4.88-15.18,35.96-26.09,78.02-32.42,125.06-11.36,1.94-22.46,5.16-33.04,9.59-4.07,1.71-6,6.4-4.29,10.48,1.25,2.98,4.15,4.91,7.38,4.91,1.06,0,2.1-.21,3.09-.62,7.98-3.34,16.31-5.92,24.83-7.69-1.27,11.67-2.3,23.87-3.05,36.35-8.7,5.38-17.03,11.28-24.78,17.55-.02.02-.05.04-.07.06,1.1,1.74,2.22,3.46,3.38,5.16-.41.7-.37,1.6.17,2.27.38.47.95.74,1.56.74.1,0,.22-.01.35-.04,1.2,1.67,2.43,3.32,3.68,4.94.35-.2.68-.43,1-.68,4.27-3.45,8.87-6.88,13.72-10.21-.32,8.84-.5,17.84-.57,26.91,1.94,1.93,3.93,3.81,5.97,5.64,1.32,1.19,2.66,2.35,4.01,3.49,1.98,1.67,3.99,3.29,6.05,4.86-.13-17.26.21-34.48,1.05-51.29.35-.21.7-.42,1.05-.62,9.21-5.17,18.87-9.74,28.72-13.56,1.99-.77,3.57-2.28,4.43-4.24.86-1.96.91-4.13.14-6.13-1.59-4.11-6.24-6.16-10.36-4.56-7.64,2.97-15.29,6.42-22.82,10.3.74-9.94,1.66-19.76,2.76-29.29,8.23-.68,16.51-.61,24.63.21,2.13.22,4.22-.41,5.88-1.77,1.65-1.35,2.68-3.27,2.89-5.4.21-2.13-.41-4.21-1.76-5.87-1.35-1.66-3.27-2.69-5.4-2.9-8-.81-16.11-.97-24.16-.49,5.3-37.52,13.59-71.68,24.69-101.66l15.52,27.02c1.07,1.87,2.88,3.24,4.97,3.77,2.09.53,4.34.18,6.17-.94,7.71-4.75,16.51-7.87,25.46-9.01,9.82-1.26,19.98-.17,29.38,3.14,3.99,1.4,8.4-.56,10.03-4.45l13.22-31.47c15.5,20.48,30.71,44.03,44.23,68.49-15.06,27.94-24.95,70.67-26.52,114.77-.43,12.17-.72,44.02,6.5,68.03,1.9-.76,3.78-1.55,5.64-2.38,1.19-.53,2.38-1.07,3.55-1.63,1.8-.85,3.58-1.73,5.33-2.64-8.18-29.77-7.88-86.29,5.47-132.97,2.05-7.19,4.42-14.14,7.11-20.72.7-1.72,1.42-3.41,2.17-5.08,9.96,19.47,18.53,38.79,25.51,57.53,7.47,20.06,12.63,38.35,15.44,54.2,1.7-2.25,3.34-4.54,4.93-6.88,1.03-1.52,2.02-3.05,3-4.6,1.52-2.42,2.98-4.88,4.38-7.38-3.69-15.12-8.48-29.47-12.74-40.93-8.39-22.51-18.95-45.73-31.4-69.05Z"/>
    </g>
  </g>
</svg>