<?xml version="1.0" encoding="UTF-8"?>
<svg id="Camada_2" data-name="Camada 2" xmlns="http://www.w3.org/2000/svg" viewBox="0 0 588.21 162.27">
  <defs>
    <style>
      .cls-1 {
        fill: #fff;
      }

      .cls-1, .cls-2 {
        stroke-width: 0px;
      }

      .cls-2 {
        fill: #e1fe94;
      }
    </style>
  </defs>
  <g id="Camada_1-2" data-name="Camada 1">
    <g>
      <path class="cls-2" d="m335.24,69.93c1.79-.24,3.38-1.43,4.36-3.27.9-1.69,1.24-3.8.96-5.93s-1.17-4.08-2.48-5.47c-1.43-1.52-3.27-2.25-5.07-2.01-1.79.24-3.38,1.43-4.36,3.27-.9,1.69-1.24,3.8-.96,5.93.58,4.37,3.52,7.53,6.85,7.53.23,0,.47-.02.7-.05Z"/>
      <path class="cls-2" d="m371.72,64.74c.13,0,.26,0,.39-.01,3.63-.28,6.19-4.18,5.83-8.88-.16-2.15-.93-4.14-2.17-5.6-1.34-1.59-3.14-2.43-4.95-2.29-1.8.14-3.46,1.24-4.54,3.02-1,1.64-1.45,3.72-1.29,5.87.16,2.15.93,4.14,2.17,5.6,1.24,1.48,2.89,2.31,4.56,2.31Z"/>
      <path class="cls-2" d="m446.84,35.79c-4.37,0-7.78,5.71-7.78,13.01s3.42,13.01,7.78,13.01,7.78-5.71,7.78-13.01-3.42-13.01-7.78-13.01Z"/>
      <path class="cls-2" d="m479.48,48.1c0-7.3-3.42-13.01-7.79-13.01s-7.78,5.71-7.78,13.01,3.42,13.01,7.78,13.01,7.79-5.71,7.79-13.01Z"/>
      <circle class="cls-2" cx="499.25" cy="78.59" r="5.26"/>
      <path class="cls-2" d="m515.53,73.06c-2.9,0-5.26,2.36-5.26,5.26s2.36,5.27,5.26,5.27,5.26-2.36,5.26-5.27-2.36-5.26-5.26-5.26Z"/>
      <path class="cls-2" d="m502.56,91.81c0,2.9,2.36,5.26,5.26,5.26s5.27-2.36,5.27-5.26-2.36-5.26-5.27-5.26-5.26,2.36-5.26,5.26Z"/>
      <path class="cls-2" d="m376.49,73.83c-1-.53-2.14-.65-3.23-.32-1.08.33-1.97,1.06-2.51,2.06-.53,1-.65,2.15-.32,3.23.97,3.18.65,5.79-.88,7.35-1.28,1.29-3.34,1.77-5.26,1.21-2.48-.72-4.31-3.02-5.02-6.31-.49-2.23-2.63-3.67-4.87-3.28-2.25.39-3.77,2.47-3.48,4.73.49,3.74-.29,6.6-2.16,7.86-1.07.72-2.33.77-3.46.13-1.93-1.1-2.91-3.87-2.69-7.59.07-1.13-.31-2.22-1.06-3.07-.75-.85-1.79-1.35-2.92-1.42-1.13-.06-2.23.31-3.07,1.06-.84.75-1.34,1.79-1.41,2.92-.42,7.06,2.11,12.69,6.94,15.45,1.79,1.02,3.81,1.56,5.84,1.56,2.33,0,4.6-.69,6.55-2.01,1.59-1.07,2.89-2.45,3.88-4.13,1.37,1.01,2.89,1.76,4.55,2.24,4.94,1.44,10.18.14,13.66-3.4,3.77-3.82,4.85-9.56,2.96-15.77-.33-1.08-1.06-1.98-2.06-2.51Z"/>
      <path class="cls-2" d="m531.98,83.51c2.9,0,5.26-2.36,5.26-5.26s-2.36-5.26-5.26-5.26-5.27,2.36-5.27,5.26,2.36,5.26,5.27,5.26Z"/>
      <path class="cls-2" d="m517.79,91.98c0,2.9,2.36,5.27,5.26,5.27s5.27-2.36,5.27-5.27-2.36-5.26-5.27-5.26-5.26,2.36-5.26,5.26Z"/>
      <path class="cls-2" d="m588.12,71.61h0c-.58-8-3.56-14.08-8.16-16.68-3.04-1.72-6.86-1.17-13.18-.26-13.35,1.93-38.13,5.5-73.97-12.16-3.43-21.82-5.16-24.1-10.44-28.5l-.49-.41c-13.39-11.23-37.95-8.24-61.1,7.44-.18.12-.35.26-.5.4-6.24,5.77-11.79,12.19-16.52,19.14-8.12-14.21-17.18-27.64-26.31-38.98-.93-1.16-2.42-1.75-3.89-1.54-1.47.21-2.74,1.19-3.32,2.56l-8.33,19.83c-5.08-1.26-10.45-1.58-15.6-.92-4.45.57-8.92,1.9-13.02,3.87l-10.54-18.34c-.81-1.4-2.31-2.22-3.93-2.12-1.62.1-3.02,1.09-3.65,2.58-8.04,19.04-13.81,41.32-17.17,66.23-6.02,1.03-11.9,2.73-17.49,5.08-2.16.9-3.18,3.39-2.27,5.55.66,1.58,2.2,2.6,3.91,2.6.56,0,1.11-.11,1.64-.33,4.23-1.77,8.64-3.14,13.15-4.07-.67,6.18-1.22,12.64-1.62,19.25-4.61,2.85-9.02,5.98-13.12,9.3-1.82,1.47-2.1,4.14-.63,5.96.81,1,2.01,1.57,3.3,1.57.97,0,1.91-.34,2.66-.94,2.26-1.83,4.7-3.64,7.27-5.41-.29,7.93-.39,16.09-.28,24.3v.23c.02,1.21.03,2.14.02,2.76-.02,2.34,1.87,4.25,4.24,4.27,2.32,0,4.22-1.89,4.24-4.21,0-.65,0-1.64-.02-2.92v-.23c-.13-9.98.05-19.97.54-29.7.18-.11.37-.22.56-.33,4.88-2.74,9.99-5.16,15.21-7.18,1.06-.41,1.89-1.21,2.34-2.24.46-1.04.48-2.19.07-3.24-.84-2.18-3.31-3.26-5.49-2.42-4.05,1.57-8.1,3.4-12.09,5.45.39-5.27.88-10.47,1.46-15.51,4.36-.36,8.74-.32,13.05.11,1.13.12,2.24-.22,3.11-.94.87-.72,1.42-1.73,1.53-2.86.11-1.13-.22-2.23-.93-3.11-.72-.88-1.73-1.42-2.86-1.54-4.24-.43-8.53-.51-12.79-.26,2.8-19.87,7.2-37.96,13.07-53.84l8.22,14.31c.57.99,1.53,1.72,2.63,2,1.11.28,2.3.1,3.27-.5,4.08-2.52,8.74-4.17,13.48-4.77,5.2-.67,10.58-.09,15.56,1.66,2.12.74,4.45-.29,5.31-2.36l7-16.67c8.21,10.84,16.26,23.32,23.42,36.27-7.98,14.8-13.21,37.42-14.04,60.78-.33,9.31-.5,40.36,11.22,49.23,2.2,1.66,6.45,3.44,11.79,3.44s12.85-1.64,20.37-9.47c13.84-14.4,4.07-48.33-2.98-67.27-4.44-11.92-10.03-24.22-16.63-36.56,4.79-7.72,10.63-14.82,17.39-21.1,19.59-13.17,40.4-16.37,50.64-7.78l.51.42c3.35,2.79,4.48,3.73,7.82,25.44.21,1.35,1.05,2.52,2.27,3.13,21.18,10.77,41.21,15.9,61.18,15.71-.14,3.54.55,6.71,2.07,9.41,2.05,3.64,5.58,6.43,10.25,8.18-.65,3.24-1.56,6.42-2.75,9.45-2.48,6.34-6.05,12.14-10.62,17.26-7.77,1.31-16.43,1.77-25.09,1.34-24.79-1.23-47.52-9.6-63.98-23.56-1.78-1.51-4.46-1.29-5.98.49-1.51,1.78-1.29,4.46.49,5.97,20.6,17.47,45.06,23.22,62.16,24.96,0,0,.02.01.02.02,1.28,1.17,2.53,2.39,3.73,3.62,2.09,2.15,3.52,3.85,4.9,5.49,1.74,2.07,3.39,4.02,5.98,6.44,1.28,1.2,2.61,2.33,3.95,3.38.7.55,1.54.86,2.43.9,8.85.39,16.48-5.18,18-12.93.56-2.84.22-5.79-.98-8.63,8.35-1.78,15.05-4.41,19.02-7.5,13.28-10.33,17.07-26.65,16.28-37.49Zm-171.03,16.89c10.66,28.63,12.47,50.48,4.82,58.44-8.74,9.09-18.03,7.34-20.93,5.14-8.98-6.81-11.55-48.06-2.31-80.38,1.09-3.81,2.34-7.49,3.76-10.97.37-.91.75-1.81,1.15-2.69,5.27,10.31,9.81,20.54,13.51,30.46Zm128.38,35.11c-.63,3.22-4.02,5.75-8.01,6.06-.76-.63-1.52-1.3-2.26-1.99-2.22-2.07-3.64-3.75-5.28-5.7-.73-.87-1.57-1.86-2.56-2.98,5.68.05,11.26-.26,16.64-.93.21.3.43.66.64,1.06.63,1.2,1.16,2.79.83,4.48Zm32.91-39.27c-.03.12-.06.23-.1.36-.11.37-.22.75-.35,1.14-.02.07-.05.15-.07.22-.11.32-.22.65-.34.99-.05.14-.1.27-.15.41-.1.28-.21.56-.32.84-.06.16-.13.32-.19.48-.11.27-.23.55-.35.83-.07.16-.15.33-.22.49-.13.28-.27.57-.41.86-.08.16-.16.32-.24.48-.16.32-.34.64-.52.97-.07.13-.13.25-.21.38-.26.45-.53.91-.81,1.36-.02.03-.04.06-.06.09-.27.42-.55.84-.84,1.26-.1.14-.21.28-.31.43-.22.31-.45.61-.68.91-.13.17-.26.33-.4.49-.23.28-.46.56-.7.84-.15.17-.3.34-.45.51-.25.27-.5.54-.77.81-.16.16-.31.32-.47.48-.29.29-.6.57-.9.85-.15.13-.29.27-.44.4-.47.41-.95.81-1.45,1.2-.18.14-.38.29-.59.43-1.45,1-3.42,1.98-5.79,2.88,1.61-2.58,3.04-5.25,4.27-8.01.41-.92.8-1.85,1.16-2.78.36-.92.69-1.85,1.01-2.79.11-.32.21-.65.31-.98.2-.63.4-1.25.58-1.89.11-.38.21-.76.31-1.15.16-.59.31-1.18.46-1.78.1-.4.18-.8.27-1.2.07-.32.15-.64.22-.96.12,0,.25,0,.37.02.42.03.84.05,1.26.06.35.01.69.03,1.04.03.12,0,.23.01.35.01.35,0,.7-.02,1.05-.03.31,0,.61-.01.92-.03.5-.03,1.01-.07,1.51-.11.28-.02.57-.04.85-.07.61-.07,1.23-.15,1.85-.25.16-.02.33-.04.49-.07-.05.19-.1.39-.16.59Z"/>
    </g>
    <g>
      <path class="cls-1" d="m31.56,61.82c-2.82,2.91-6.91,4.37-12.25,4.37-1.09,0-2.2-.09-3.32-.27-1.12-.18-2.19-.44-3.19-.77s-1.9-.71-2.69-1.14v20.58l-10.11-2V21.47c0-1.11.9-2,2-2h6.1c1.11,0,2,.9,2,2h0c.42-.36,1.21-.77,2.37-1.23,1.15-.46,2.44-.85,3.87-1.18,1.43-.33,2.78-.5,4.05-.5,3.34,0,6.15.59,8.42,1.78,2.28,1.18,4.01,2.89,5.19,5.1,1.18,2.22,1.78,4.9,1.78,8.06v15.57c0,5.59-1.41,9.84-4.23,12.75Zm-6.42-30.74c-.43-.88-1-1.56-1.73-2.05-.73-.49-1.55-.83-2.46-1.05-.91-.21-1.85-.32-2.82-.32-1.22,0-2.4.17-3.55.5-1.15.33-2.13.67-2.91,1-.79.33-1.31.56-1.55.68v22.5c0,.85.3,1.58.91,2.19.61.61,1.38,1.09,2.32,1.46.94.36,1.91.64,2.91.82,1,.18,1.93.27,2.78.27,1.46,0,2.69-.27,3.69-.82,1-.55,1.76-1.32,2.28-2.32.52-1,.77-2.14.77-3.42v-16.21c0-1.27-.21-2.35-.64-3.23Z"/>
      <path class="cls-1" d="m66.48,30.13c-.42-1.15-1.08-2.05-1.96-2.69-.88-.64-2-1.11-3.37-1.41-.85-.19-1.82-.32-2.92-.39s-2-1.12-1.85-2.26l.39-2.96c.13-1.02,1.03-1.77,2.06-1.74,2.86.08,5.35.36,7.47.84,2.55.58,4.63,1.58,6.24,3.01,1.61,1.43,2.78,3.31,3.51,5.65.73,2.34,1.09,5.27,1.09,8.79v28.14c-1.03.12-2.09.24-3.19.36-1.09.12-2.2.23-3.32.32-1.12.09-2.29.15-3.51.18-1.22.03-2.43.06-3.64.09-1.22.03-2.46.05-3.73.05-2.86,0-5.48-.24-7.88-.73-2.4-.49-4.51-1.31-6.33-2.46-1.82-1.15-3.23-2.72-4.23-4.69-1-1.97-1.5-4.42-1.5-7.33v-8.83c0-2.31.33-4.31,1-6.01.67-1.7,1.61-3.1,2.82-4.19,1.21-1.09,2.63-1.91,4.23-2.46,1.61-.55,3.29-.82,5.06-.82s3.45.23,5.24.68c1.79.45,3.48,1.11,5.06,1.96,1.58.85,2.88,1.94,3.92,3.28,0-1.76-.21-3.22-.64-4.37Zm-2.19,10.75c-1.28-.49-2.7-.96-4.28-1.41-1.58-.46-3.13-.68-4.64-.68-.79,0-1.5.08-2.14.23-.64.15-1.2.41-1.69.77-.49.36-.87.85-1.14,1.46-.27.61-.41,1.34-.41,2.19v5.83c0,1.15.14,2.19.41,3.1.27.91.77,1.7,1.5,2.37.73.67,1.79,1.18,3.19,1.55,1.4.36,3.22.55,5.46.55.36,0,.82-.01,1.37-.05.55-.03,1.11-.06,1.68-.09.58-.03,1.14-.06,1.69-.09.55-.03,1.15-.08,1.82-.14v-14.39c-.61-.3-1.55-.7-2.82-1.18Z"/>
      <path class="cls-1" d="m92.62,56.17c.61.79,1.49,1.34,2.64,1.64,1.15.3,2.49.45,4.01.45l-2.91,8.02c-4.98-.12-8.7-1.31-11.16-3.55s-3.69-5.49-3.69-9.75V3.35c0-1.11.9-2,2-2h6.19c1.11,0,2,.9,2,2v16.21h4.3c2.88,0,5.02,2.68,4.38,5.49l-.84,3.71h-7.83v24.14c0,1.4.3,2.49.91,3.28Z"/>
      <path class="cls-1" d="m114.53,1.89c1.06.97,1.59,2.25,1.59,3.83s-.53,2.81-1.59,3.87-2.35,1.59-3.87,1.59-2.81-.53-3.87-1.59c-1.06-1.06-1.59-2.35-1.59-3.87s.53-2.85,1.59-3.83c1.06-.97,2.35-1.46,3.87-1.46s2.81.49,3.87,1.46Zm-6.97,17.58h6.1c1.11,0,2,.9,2,2v43.63h-10.11V21.47c0-1.11.9-2,2-2Z"/>
      <path class="cls-1" d="m145.44,31.36c-.36-.76-.9-1.41-1.59-1.96-.7-.55-1.5-.96-2.41-1.23s-1.94-.41-3.1-.41c-.73,0-1.52.06-2.37.18-.85.12-1.76.35-2.73.68-.97.33-2,.77-3.1,1.32v35.25h-10.02V21.47c0-1.11.9-2,2-2h6.01c1.11,0,2,.9,2,2v.09c.61-.3,1.44-.68,2.51-1.14,1.06-.45,2.26-.87,3.6-1.23,1.33-.36,2.73-.55,4.19-.55s3.02.15,4.51.46c1.49.3,2.9.79,4.24,1.46,1.33.67,2.5,1.56,3.51,2.69,1,1.12,1.79,2.54,2.37,4.24.58,1.7.87,3.73.87,6.1v31.6h-9.93v-31.33c0-.91-.18-1.74-.55-2.5Z"/>
      <path class="cls-1" d="m172.72,20.29c1.06-.49,2.26-.9,3.6-1.23,1.33-.33,2.73-.5,4.19-.5,1.58,0,3.11.15,4.6.46,1.49.3,2.88.77,4.19,1.41,1.31.64,2.47,1.53,3.51,2.69,1.03,1.15,1.84,2.58,2.41,4.28.58,1.7.87,3.77.87,6.19v31.51h-9.93v-31.33c0-.91-.18-1.73-.55-2.46-.36-.73-.87-1.37-1.5-1.91-.64-.55-1.41-.96-2.32-1.23s-1.91-.41-3.01-.41c-.79,0-1.66.08-2.6.23-.94.15-1.9.38-2.87.68-.97.3-2,.7-3.1,1.18v35.25h-10.02V3.35c0-1.11.9-2,2-2h6.01c1.11,0,2,.9,2,2v18.22c.61-.36,1.44-.79,2.5-1.27Z"/>
      <path class="cls-1" d="m226.59,30.13c-.42-1.15-1.08-2.05-1.96-2.69-.88-.64-2-1.11-3.37-1.41-.85-.19-1.82-.32-2.92-.39s-2-1.12-1.85-2.26l.39-2.96c.13-1.02,1.03-1.77,2.06-1.74,2.86.08,5.35.36,7.47.84,2.55.58,4.63,1.58,6.24,3.01,1.61,1.43,2.78,3.31,3.51,5.65.73,2.34,1.09,5.27,1.09,8.79v28.14c-1.03.12-2.09.24-3.19.36-1.09.12-2.2.23-3.32.32-1.12.09-2.29.15-3.51.18-1.22.03-2.43.06-3.64.09-1.22.03-2.46.05-3.73.05-2.86,0-5.48-.24-7.88-.73-2.4-.49-4.51-1.31-6.33-2.46-1.82-1.15-3.23-2.72-4.23-4.69-1-1.97-1.5-4.42-1.5-7.33v-8.83c0-2.31.33-4.31,1-6.01.67-1.7,1.61-3.1,2.82-4.19,1.21-1.09,2.63-1.91,4.23-2.46,1.61-.55,3.29-.82,5.06-.82s3.45.23,5.24.68c1.79.45,3.48,1.11,5.06,1.96,1.58.85,2.88,1.94,3.92,3.28,0-1.76-.21-3.22-.64-4.37Zm-2.19,10.75c-1.28-.49-2.7-.96-4.28-1.41-1.58-.46-3.13-.68-4.64-.68-.79,0-1.5.08-2.14.23-.64.15-1.2.41-1.69.77-.49.36-.87.85-1.14,1.46-.27.61-.41,1.34-.41,2.19v5.83c0,1.15.14,2.19.41,3.1.27.91.77,1.7,1.5,2.37.73.67,1.79,1.18,3.19,1.55,1.4.36,3.22.55,5.46.55.36,0,.82-.01,1.37-.05.55-.03,1.11-.06,1.68-.09.58-.03,1.14-.06,1.69-.09.55-.03,1.15-.08,1.82-.14v-14.39c-.61-.3-1.55-.7-2.82-1.18Z"/>
      <path class="cls-1" d="m266.71,28.99c-.94-.27-1.94-.49-3.01-.64-1.06-.15-2.17-.23-3.32-.23-.61,0-1.26.03-1.96.09-.7.06-1.38.2-2.05.41-.67.21-1.23.52-1.68.91-.46.39-.68.93-.68,1.59,0,.85.42,1.61,1.27,2.28.85.67,1.96,1.28,3.32,1.82,1.37.55,2.88,1.12,4.55,1.73,1.67.61,3.31,1.31,4.92,2.09,1.61.79,3.11,1.73,4.51,2.82s2.51,2.45,3.32,4.05c.82,1.61,1.23,3.54,1.23,5.78,0,2.43-.49,4.55-1.46,6.38-.97,1.82-2.26,3.35-3.87,4.6-1.61,1.24-3.48,2.19-5.6,2.82-2.13.64-4.31.96-6.56.96-3.58,0-6.98-.7-10.2-2.09-3.22-1.4-5.95-3.28-8.2-5.65l5.83-6.19c1.09.85,2.29,1.62,3.6,2.32,1.31.7,2.66,1.25,4.05,1.64,1.4.4,2.76.59,4.1.59.85,0,1.73-.09,2.64-.27s1.73-.49,2.46-.91c.73-.42,1.32-.96,1.78-1.59.45-.64.68-1.41.68-2.32,0-1.21-.41-2.22-1.23-3.01-.82-.79-1.91-1.5-3.28-2.14-1.37-.64-2.85-1.26-4.46-1.87-1.61-.61-3.23-1.26-4.87-1.96-1.64-.7-3.13-1.58-4.46-2.64-1.34-1.06-2.43-2.34-3.28-3.83-.85-1.49-1.27-3.26-1.27-5.33,0-2.25.45-4.19,1.37-5.83s2.14-2.97,3.69-4.01c1.55-1.03,3.29-1.81,5.24-2.32,1.94-.52,3.95-.77,6.01-.77,1.4,0,2.85.12,4.37.36,1.52.24,2.99.61,4.42,1.09.77.26,1.5.56,2.17.9.93.46,1.37,1.55,1,2.52l-1.85,4.87c-.39,1.02-1.51,1.52-2.55,1.17-.22-.07-.45-.15-.69-.21Z"/>
    </g>
    <g>
      <path class="cls-1" d="m39.28,79.61c-.85-.07-1.64-.1-2.39-.1-.81,0-1.51.12-2.08.36-.58.24-1.07.58-1.47,1.02-.41.44-.71.93-.91,1.47-.2.54-.3,1.15-.3,1.83v6.7h3.45c3.42,0,5.93,3.19,5.13,6.51h0c-.57,2.37-2.69,4.05-5.13,4.05h-3.45v40.31h-11.57v-55.94c0-2.91.41-5.4,1.22-7.46.81-2.06,1.96-3.77,3.45-5.13,1.49-1.35,3.18-2.34,5.08-2.95,1.89-.61,3.92-.91,6.09-.91.68,0,1.42.04,2.23.1.81.07,1.62.15,2.44.25h.02c1.15.15,1.94,1.23,1.72,2.37l-1.15,5.91c-.2,1.03-1.15,1.73-2.2,1.63-.06,0-.12-.01-.17-.02Z"/>
      <path class="cls-1" d="m55.58,129.05c.27.75.68,1.37,1.22,1.88.54.51,1.23.9,2.08,1.17.85.27,1.81.41,2.89.41,2.1,0,4.42-.39,6.96-1.17.86-.26,1.7-.55,2.54-.85,2.74-1,5.78.32,6.88,3.02h0c1.15,2.83-.27,6.03-3.12,7.11-1.11.42-2.28.79-3.51,1.13-3.25.88-6.53,1.32-9.85,1.32-2.57,0-4.94-.3-7.11-.91-2.17-.61-4.06-1.51-5.69-2.69-1.63-1.18-2.88-2.72-3.76-4.62-.88-1.89-1.32-4.13-1.32-6.7v-21.02c0-3.86.88-7.07,2.64-9.65,1.76-2.57,4.15-4.48,7.16-5.74,3.01-1.25,6.38-1.88,10.1-1.88s7.21.61,10.05,1.83c2.84,1.22,5.04,3.1,6.6,5.63,1.56,2.54,2.34,5.7,2.34,9.49v7.85c0,4.53-3.56,8.26-8.08,8.47l-19.44.93v2.54c0,.88.13,1.69.41,2.44Zm15.28-23.71c-.37-1.45-1.12-2.66-2.23-3.6-1.12-.95-2.79-1.35-5.03-1.22-2.37.07-4.16.49-5.38,1.27-1.22.78-2.03,1.83-2.44,3.15-.41,1.32-.61,2.93-.61,4.82v4.06l16.24-.91v-3.05c0-1.56-.19-3.06-.56-4.52Z"/>
      <path class="cls-1" d="m92.79,77.22h0c3.11,0,5.63,2.52,5.63,5.63v58.88h-11.27v-58.88c0-3.11,2.52-5.63,5.63-5.63Z"/>
      <path class="cls-1" d="m113.8,77.4c1.18,1.08,1.78,2.51,1.78,4.26s-.59,3.13-1.78,4.32-2.62,1.78-4.32,1.78-3.13-.59-4.32-1.78c-1.18-1.18-1.78-2.62-1.78-4.32s.59-3.18,1.78-4.26c1.18-1.08,2.62-1.62,4.32-1.62s3.13.54,4.32,1.62Zm-4.91,13.48h1.09c2.81,0,5.09,2.28,5.09,5.09v45.78h-11.27v-45.78c0-2.81,2.28-5.09,5.09-5.09Z"/>
      <path class="cls-1" d="m156.73,103.02l-22.47,27.96,25.18.1.23,11.35h-33.65c-3.41,0-6.2-2.73-6.27-6.15l-.06-3c-.03-1.49.47-2.94,1.41-4.09l22.71-27.86-17.98-.08c-2.86-.01-5.17-2.33-5.17-5.19h0c0-2.87,2.32-5.19,5.19-5.19h25.24c4,0,7.24,3.24,7.24,7.24v.37c0,1.65-.56,3.25-1.6,4.53Z"/>
      <path class="cls-1" d="m175.37,129.05c.27.75.68,1.37,1.22,1.88.54.51,1.23.9,2.08,1.17.85.27,1.81.41,2.89.41,2.1,0,4.42-.39,6.96-1.17,2.54-.78,4.99-1.74,7.36-2.89l3.96,9.75c-2.44,1.49-5.28,2.67-8.53,3.55s-6.53,1.32-9.85,1.32c-2.57,0-4.94-.3-7.11-.91-2.17-.61-4.06-1.51-5.69-2.69-1.63-1.18-2.88-2.72-3.76-4.62-.88-1.89-1.32-4.13-1.32-6.7v-21.02c0-3.86.88-7.07,2.64-9.65,1.76-2.57,4.15-4.48,7.16-5.74,3.01-1.25,6.38-1.88,10.1-1.88s7.21.61,10.05,1.83c2.84,1.22,5.04,3.1,6.6,5.63,1.56,2.54,2.34,5.7,2.34,9.49v7.55c0,4.7-3.69,8.56-8.38,8.79l-19.14.92v2.54c0,.88.13,1.69.41,2.44Zm15.28-23.71c-.37-1.45-1.12-2.66-2.23-3.6-1.12-.95-2.79-1.35-5.03-1.22-2.37.07-4.16.49-5.38,1.27-1.22.78-2.03,1.83-2.44,3.15-.41,1.32-.61,2.93-.61,4.82v4.06l16.24-.91v-3.05c0-1.56-.19-3.06-.56-4.52Z"/>
      <path class="cls-1" d="m232.49,101.49c-1.05-.3-2.17-.54-3.35-.71-1.18-.17-2.42-.25-3.71-.25-.68,0-1.41.03-2.18.1-.78.07-1.54.22-2.28.46-.75.24-1.37.58-1.88,1.02-.51.44-.76,1.03-.76,1.78,0,.95.47,1.79,1.42,2.54.95.75,2.18,1.42,3.71,2.03,1.52.61,3.21,1.25,5.08,1.93,1.86.68,3.69,1.46,5.48,2.34,1.79.88,3.47,1.93,5.03,3.15s2.79,2.73,3.71,4.52c.91,1.79,1.37,3.94,1.37,6.45,0,2.71-.54,5.08-1.62,7.11-1.08,2.03-2.52,3.74-4.32,5.13-1.79,1.39-3.88,2.44-6.24,3.15-2.37.71-4.81,1.07-7.31,1.07-3.99,0-7.78-.78-11.37-2.34-3.59-1.56-6.63-3.66-9.14-6.29l6.5-6.9c1.22.95,2.55,1.81,4.01,2.59,1.46.78,2.96,1.39,4.52,1.83,1.56.44,3.08.66,4.57.66.95,0,1.93-.1,2.94-.3s1.93-.54,2.74-1.02c.81-.47,1.47-1.07,1.98-1.78.51-.71.76-1.57.76-2.59,0-1.35-.46-2.47-1.37-3.35-.91-.88-2.13-1.67-3.65-2.39-1.52-.71-3.18-1.4-4.97-2.08-1.79-.68-3.6-1.4-5.43-2.18-1.83-.78-3.49-1.76-4.97-2.94-1.49-1.18-2.71-2.6-3.66-4.26-.95-1.66-1.42-3.64-1.42-5.94,0-2.5.51-4.67,1.52-6.5s2.39-3.32,4.11-4.47c1.73-1.15,3.67-2.01,5.84-2.59,2.16-.57,4.4-.86,6.7-.86,1.56,0,3.18.14,4.87.41,1.69.27,3.33.68,4.92,1.22.53.18,1.03.37,1.52.58,1.56.67,2.32,2.44,1.72,4.03l-1.45,3.82c-.59,1.56-2.28,2.35-3.88,1.89-.01,0-.02,0-.03,0Z"/>
    </g>
  </g>
</svg>