<?xml version="1.0" encoding="UTF-8"?>
<svg id="Camada_2" data-name="Camada 2" xmlns="http://www.w3.org/2000/svg" viewBox="0 0 1920.22 207.2">
  <defs>
    <style>
      .cls-1 {
        fill: #091d1c;
        stroke-width: 0px;
      }
    </style>
  </defs>
  <g id="Camada_1-2" data-name="Camada 1">
    <path class="cls-1" d="M1759.65,26c-103.44,0-103.44-26-206.88-26-103.44,0-103.44,26-206.88,26-103.44,0-103.44-26-206.88-26-103.44,0-103.44,26-206.87,26-103.44,0-103.44-26-206.88-26-103.44,0-103.44,26-206.88,26-103.44,0-103.44-26-206.88-26-103.44,0-103.44,26-206.89,26-51.98,0-78.26-9.02-104.62-16.75v197.95h1920.22V2.15c-60.36,6.23-75.42,23.85-160.57,23.85Z"/>
  </g>
</svg>